<?xml version="1.0" encoding="UTF-8" standalone="no"?><!DOCTYPE svg PUBLIC "-//W3C//DTD SVG 1.1//EN" "http://www.w3.org/Graphics/SVG/1.1/DTD/svg11.dtd"><svg width="100%" height="100%" viewBox="0 0 1600 966" version="1.1" xmlns="http://www.w3.org/2000/svg" xmlns:xlink="http://www.w3.org/1999/xlink" xml:space="preserve" xmlns:serif="http://www.serif.com/" style="fill-rule:evenodd;clip-rule:evenodd;stroke-linejoin:round;stroke-miterlimit:2;"><g><g><path d="M720.689,843.001l-4.654,0c-1.142,0 -1.844,0.272 -2.283,1.36l-4.768,17.394c-0.176,0.408 -0.878,0.408 -1.054,0l-4.781,-17.394c-0.439,-1.02 -1.142,-1.36 -2.283,-1.36l-4.654,0c-0.966,0 -1.493,0.476 -1.054,1.36l8.906,27.742l0,20.603c0,1.02 0.527,1.428 1.844,1.428l4.215,0c1.317,0 1.844,-0.408 1.844,-1.428l0,-20.603l9.777,-27.742c0.439,-0.884 -0.088,-1.36 -1.054,-1.36Z" style="fill:#fff;fill-rule:nonzero;"/><g><path d="M1016.537,894.741c9.666,0 12.414,-2.229 12.414,-17.635l0,-17.43c0,-11.275 -2.676,-17.635 -12.414,-17.635c-9.738,0 -12.414,6.431 -12.414,17.635l0,17.43c0,15.406 2.748,17.635 12.414,17.635Zm-0,-6.514c-3.174,0 -4.251,0.327 -4.251,-11.122l0,-17.43c0,-9.873 1.401,-9.787 4.251,-9.787c2.85,-0 4.195,-0.057 4.195,9.787l0,17.43c0,11.449 -1.02,11.122 -4.195,11.122Z" style="fill:#fff;fill-rule:nonzero;"/><path d="M970.712,843.026l-5.418,-0c-0.863,0 -1.209,0.409 -1.209,1.43l0,27.318c0,0.477 -0.461,0.545 -0.633,0.068l-6.486,-27.386c-0.345,-1.021 -0.748,-1.43 -1.669,-1.43l-8.071,0c-0.863,0 -1.209,0.409 -1.209,1.43l0,48.211c0,1.021 0.345,1.43 1.209,1.43l4.645,-0c0.863,0 1.209,-0.409 1.209,-1.43l0,-33.101c0,-0.477 0.461,-0.545 0.633,-0.068l9.35,33.169c0.403,1.021 0.748,1.43 1.727,1.43l5.923,0c0.863,0 1.209,-0.409 1.209,-1.43l0,-48.211c0,-1.021 -0.345,-1.43 -1.209,-1.43Z" style="fill:#fff;fill-rule:nonzero;"/><path d="M804.979,882.321c0,-14.157 -16.193,-15.997 -16.193,-29.018c0,-2.083 1.677,-3.296 3.251,-3.296c4.372,0 4.651,2.935 4.651,6.033c0.067,0.758 0.403,0.965 1.142,0.965l5.985,0c0.806,0 0.873,-0.551 0.873,-1.241c0,-11.517 -5.371,-13.696 -12.667,-13.696c-7.635,0 -11.37,5.018 -11.37,11.36c0,17.863 16.1,18.38 16.1,29.306c0,3.931 -0.566,5.313 -4.192,5.313c-4.029,0 -4.408,-3.539 -4.811,-7.123c-0.067,-0.689 -0.403,-0.896 -1.142,-0.896l-5.697,0c-0.806,0 -0.873,0.551 -0.873,1.241c0,11.791 5.471,13.734 12.455,13.734c6.312,0 12.49,-1.277 12.49,-12.682Z" style="fill:#fff;fill-rule:nonzero;"/><path d="M999.319,842.928l-22.722,0c-1.136,0 -1.591,0.409 -1.591,1.433l0,4.228c0,1.023 0.454,1.433 1.591,1.433l6.017,0c1.136,0 1.439,0.273 1.439,1.296l0,41.345c0,1.023 0.454,1.433 1.591,1.433l4.7,0c1.136,0 1.591,-0.409 1.591,-1.433l0,-41.391c0,-1.023 0.303,-1.296 1.439,-1.296l5.946,0c1.136,0 1.591,-0.409 1.591,-1.433l0,-4.183c0,-1.023 -0.454,-1.433 -1.591,-1.433Z" style="fill:#fff;fill-rule:nonzero;"/><path d="M766.988,892.582c0,1.02 0.527,1.428 1.844,1.428l4.303,0c1.317,0 1.844,-0.408 1.844,-1.428l0,-48.142c0,-1.02 -0.527,-1.428 -1.844,-1.428l-4.303,0c-1.317,0 -1.844,0.408 -1.844,1.428l0,48.142Z" style="fill:#fff;fill-rule:nonzero;"/><path d="M904.988,892.582c0,1.02 0.527,1.428 1.844,1.428l4.303,0c1.317,0 1.844,-0.408 1.844,-1.428l0,-48.142c0,-1.02 -0.527,-1.428 -1.844,-1.428l-4.303,0c-1.317,0 -1.844,0.408 -1.844,1.428l0,48.142Z" style="fill:#fff;fill-rule:nonzero;"/><path d="M828.5,887.08l-10.061,-0c-1.134,0 -1.436,-0.273 -1.436,-1.295l0,-41.345c0,-1.022 -0.454,-1.431 -1.588,-1.431l-4.814,0c-1.134,0 -1.588,0.409 -1.588,1.431l0,48.252c0,1.022 0.454,1.431 1.588,1.431l17.899,0c1.134,0 1.588,-0.409 1.588,-1.431l0,-4.18c0,-1.022 -0.454,-1.431 -1.588,-1.431Z" style="fill:#fff;fill-rule:nonzero;"/><path d="M735.191,892.755c-0.209,1.02 0.279,1.36 1.046,1.36l5.371,0c0.907,0 1.325,-0.34 1.534,-1.36l1.08,-7.767c0.209,-0.816 0.488,-0.952 1.395,-0.952l6.678,0c0.907,0 1.185,0.136 1.395,0.952l1.298,7.767c0.209,1.02 0.628,1.36 1.534,1.36l5.516,0c0.767,0 1.255,-0.34 1.046,-1.36l-7.904,-48.278c-0.279,-1.156 -0.767,-1.36 -1.883,-1.36l-7.739,0c-1.116,0 -1.604,0.204 -1.883,1.36l-8.485,48.278Zm9.884,-16.251l3.645,-22.344c0.07,-0.476 0.697,-0.476 0.837,0l3.572,22.344c0.07,0.544 -0.209,0.748 -0.558,0.748l-6.938,0c-0.349,0 -0.628,-0.204 -0.558,-0.748Z" style="fill:#fff;fill-rule:nonzero;"/><path d="M832.623,892.826c-0.209,1.02 0.279,1.36 1.046,1.36l5.371,0c0.907,0 1.325,-0.34 1.534,-1.36l1.08,-7.767c0.209,-0.816 0.488,-0.952 1.395,-0.952l6.678,0c0.907,0 1.185,0.136 1.395,0.952l1.298,7.767c0.209,1.02 0.628,1.36 1.534,1.36l5.516,0c0.767,0 1.255,-0.34 1.046,-1.36l-7.904,-48.278c-0.279,-1.156 -0.767,-1.36 -1.883,-1.36l-7.739,0c-1.116,0 -1.604,0.204 -1.883,1.36l-8.485,48.278Zm9.884,-16.251l3.645,-22.344c0.07,-0.476 0.697,-0.476 0.837,0l3.572,22.344c0.07,0.544 -0.209,0.748 -0.558,0.748l-6.938,0c-0.349,0 -0.628,-0.204 -0.558,-0.748Z" style="fill:#fff;fill-rule:nonzero;"/><path d="M866.5,894.139l3.922,0c1.027,0 1.438,-0.409 1.438,-1.432l0,-34.248c0,-0.545 0.616,-0.682 0.821,-0.068l5.008,34.384c0.274,1.091 0.685,1.364 1.78,1.364l3.762,0c1.095,0 1.506,-0.273 1.78,-1.364l5.274,-34.575c0.137,-0.614 0.821,-0.477 0.821,0.068l-0.073,34.439c0,1.023 0.411,1.432 1.438,1.432l4.081,0c1.027,0 1.438,-0.409 1.438,-1.432l0,-48.274c0,-1.023 -0.411,-1.432 -1.438,-1.432l-8.44,0c-1.027,0 -1.301,0.682 -1.574,1.432l-4.635,34.615c-0.137,0.409 -0.685,0.409 -0.821,0l-4.453,-34.615c-0.205,-0.75 -0.548,-1.432 -1.574,-1.432l-8.553,0c-1.027,0 -1.438,0.409 -1.438,1.432l0,48.274c0,1.023 0.411,1.432 1.438,1.432Z" style="fill:#fff;fill-rule:nonzero;"/><path d="M927.016,851.242c0,-1.018 0.35,-1.289 1.662,-1.289l10.513,0c1.312,0 1.837,-0.407 1.837,-1.425l-0,-3.998c0,-1.018 -0.525,-1.425 -1.837,-1.425l-18.3,0c-1.312,0 -1.837,0.407 -1.837,1.425l0,48.05c0,1.018 0.525,1.425 1.837,1.425l18.3,0c1.312,0 1.837,-0.407 1.837,-1.425l0,-3.137c0,-1.018 -0.525,-1.425 -1.837,-1.425l-10.513,0c-1.312,0 -1.662,-0.271 -1.662,-1.289l0,-14.425c0,-1.018 0.35,-1.289 1.662,-1.289l7.503,0c1.312,0 1.837,-0.407 1.837,-1.425l-0,-3.137c0,-1.018 -0.525,-1.425 -1.837,-1.425l-7.503,0c-1.312,0 -1.662,-0.271 -1.662,-1.289l0,-12.494Z" style="fill:#fff;fill-rule:nonzero;"/></g><g><g><path d="M634.537,894.741c9.666,0 12.414,-2.229 12.414,-17.635l0,-17.43c0,-11.275 -2.676,-17.635 -12.414,-17.635c-9.738,0 -12.414,6.431 -12.414,17.635l0,17.43c0,15.406 2.748,17.635 12.414,17.635Zm0,-6.514c-3.174,0 -4.251,0.327 -4.251,-11.122l0,-17.43c0,-9.873 1.401,-9.787 4.251,-9.787c2.85,-0 4.195,-0.057 4.195,9.787l0,17.43c0,11.449 -1.02,11.122 -4.195,11.122Z" style="fill:#fff;fill-rule:nonzero;"/><path d="M591.765,894.966c6.679,0 11.715,-0.855 11.715,-17.646c0,-0.69 -0.056,-1.237 -0.725,-1.237l-6.08,0c-0.614,0 -0.893,0.275 -0.948,1.031c-0.335,2.475 0.991,11.039 -3.961,11.039c-4.812,0 -4.184,-6.041 -4.184,-10.852l0,-17.46c0,-4.812 -0.541,-9.83 4.184,-9.83c4.724,0 3.626,7.4 3.961,9.874c0.056,0.756 0.335,1.031 0.948,1.031l6.08,0c0.669,0 0.725,-0.548 0.725,-1.237c0,-16.223 -5.107,-17.504 -11.715,-17.504c-6.608,0 -12.217,3.035 -12.217,17.666l0,17.46c0,15.198 5.538,17.666 12.217,17.666Z" style="fill:#fff;fill-rule:nonzero;"/><path d="M543.712,843.026l-5.418,-0c-0.863,0 -1.209,0.409 -1.209,1.43l0,27.318c0,0.477 -0.461,0.545 -0.633,0.068l-6.486,-27.386c-0.345,-1.021 -0.748,-1.43 -1.669,-1.43l-8.071,0c-0.863,0 -1.209,0.409 -1.209,1.43l0,48.211c0,1.021 0.345,1.43 1.209,1.43l4.645,-0c0.863,0 1.209,-0.409 1.209,-1.43l0,-33.101c0,-0.477 0.461,-0.545 0.633,-0.068l9.35,33.169c0.403,1.021 0.748,1.43 1.727,1.43l5.923,0c0.863,0 1.209,-0.409 1.209,-1.43l0,-48.211c0,-1.021 -0.345,-1.43 -1.209,-1.43Z" style="fill:#fff;fill-rule:nonzero;"/><path d="M676.712,843.026l-5.418,-0c-0.863,0 -1.209,0.409 -1.209,1.43l0,27.318c0,0.477 -0.461,0.545 -0.633,0.068l-6.486,-27.386c-0.345,-1.021 -0.748,-1.43 -1.669,-1.43l-8.071,0c-0.863,0 -1.209,0.409 -1.209,1.43l0,48.211c0,1.021 0.345,1.43 1.209,1.43l4.645,-0c0.863,0 1.209,-0.409 1.209,-1.43l0,-33.101c0,-0.477 0.461,-0.545 0.633,-0.068l9.35,33.169c0.403,1.021 0.748,1.43 1.727,1.43l5.923,0c0.863,0 1.209,-0.409 1.209,-1.43l0,-48.211c0,-1.021 -0.345,-1.43 -1.209,-1.43Z" style="fill:#fff;fill-rule:nonzero;"/><path d="M504.548,892.473c0,1.02 0.527,1.428 1.844,1.428l4.303,0c1.317,0 1.844,-0.408 1.844,-1.428l0,-48.142c0,-1.02 -0.527,-1.428 -1.844,-1.428l-4.303,0c-1.317,0 -1.844,0.408 -1.844,1.428l0,48.142Z" style="fill:#fff;fill-rule:nonzero;"/><path d="M608.988,892.582c0,1.02 0.527,1.428 1.844,1.428l4.303,0c1.317,0 1.844,-0.408 1.844,-1.428l0,-48.142c0,-1.02 -0.527,-1.428 -1.844,-1.428l-4.303,0c-1.317,0 -1.844,0.408 -1.844,1.428l0,48.142Z" style="fill:#fff;fill-rule:nonzero;"/><path d="M631.025,838.924l5.018,-7.906l7.951,0.03l-5.996,7.945l-6.972,-0.068Z" style="fill:#fff;"/><path d="M428.5,887.08l-10.061,-0c-1.134,0 -1.436,-0.273 -1.436,-1.295l0,-41.345c0,-1.022 -0.454,-1.431 -1.588,-1.431l-4.814,0c-1.134,0 -1.588,0.409 -1.588,1.431l0,48.252c0,1.022 0.454,1.431 1.588,1.431l17.899,0c1.134,0 1.588,-0.409 1.588,-1.431l0,-4.18c0,-1.022 -0.454,-1.431 -1.588,-1.431Z" style="fill:#fff;fill-rule:nonzero;"/><path d="M432.191,892.755c-0.209,1.02 0.279,1.36 1.046,1.36l5.371,0c0.907,0 1.325,-0.34 1.534,-1.36l1.08,-7.767c0.209,-0.816 0.488,-0.952 1.395,-0.952l6.678,0c0.907,0 1.185,0.136 1.395,0.952l1.298,7.767c0.209,1.02 0.628,1.36 1.534,1.36l5.516,0c0.767,0 1.255,-0.34 1.046,-1.36l-7.904,-48.278c-0.279,-1.156 -0.767,-1.36 -1.883,-1.36l-7.739,0c-1.116,0 -1.604,0.204 -1.883,1.36l-8.485,48.278Zm9.884,-16.251l3.645,-22.344c0.07,-0.476 0.697,-0.476 0.837,0l3.572,22.344c0.07,0.544 -0.209,0.748 -0.558,0.748l-6.938,0c-0.349,0 -0.628,-0.204 -0.558,-0.748Z" style="fill:#fff;fill-rule:nonzero;"/><path d="M548.191,892.755c-0.209,1.02 0.279,1.36 1.046,1.36l5.371,0c0.907,0 1.325,-0.34 1.534,-1.36l1.08,-7.767c0.209,-0.816 0.488,-0.952 1.395,-0.952l6.678,0c0.907,0 1.185,0.136 1.395,0.952l1.298,7.767c0.209,1.02 0.628,1.36 1.534,1.36l5.516,0c0.767,0 1.255,-0.34 1.046,-1.36l-7.904,-48.278c-0.279,-1.156 -0.767,-1.36 -1.883,-1.36l-7.739,0c-1.116,0 -1.604,0.204 -1.883,1.36l-8.485,48.278Zm9.884,-16.251l3.645,-22.344c0.07,-0.476 0.697,-0.476 0.837,0l3.572,22.344c0.07,0.544 -0.209,0.748 -0.558,0.748l-6.938,0c-0.349,0 -0.628,-0.204 -0.558,-0.748Z" style="fill:#fff;fill-rule:nonzero;"/><path d="M466.5,894.139l3.922,0c1.027,0 1.438,-0.409 1.438,-1.432l0,-34.248c0,-0.545 0.616,-0.682 0.821,-0.068l5.008,34.384c0.274,1.091 0.685,1.364 1.78,1.364l3.762,0c1.095,0 1.506,-0.273 1.78,-1.364l5.274,-34.575c0.137,-0.614 0.821,-0.477 0.821,0.068l-0.073,34.439c0,1.023 0.411,1.432 1.438,1.432l4.081,0c1.027,0 1.438,-0.409 1.438,-1.432l0,-48.274c0,-1.023 -0.411,-1.432 -1.438,-1.432l-8.44,0c-1.027,0 -1.301,0.682 -1.574,1.432l-4.635,34.615c-0.137,0.409 -0.685,0.409 -0.821,0l-4.453,-34.615c-0.205,-0.75 -0.548,-1.432 -1.574,-1.432l-8.553,0c-1.027,0 -1.438,0.409 -1.438,1.432l0,48.274c0,1.023 0.411,1.432 1.438,1.432Z" style="fill:#fff;fill-rule:nonzero;"/></g><g><g><path d="M57.32,894.966c6.679,0 11.715,-0.855 11.715,-17.646c0,-0.69 -0.056,-1.237 -0.725,-1.237l-6.08,0c-0.614,0 -0.893,0.275 -0.948,1.031c-0.335,2.475 0.991,11.039 -3.961,11.039c-4.812,0 -4.184,-6.041 -4.184,-10.852l0,-17.46c0,-4.812 -0.541,-9.83 4.184,-9.83c4.724,0 3.626,7.4 3.961,9.874c0.056,0.756 0.335,1.031 0.948,1.031l6.08,0c0.669,0 0.725,-0.548 0.725,-1.237c0,-16.223 -5.107,-17.504 -11.715,-17.504c-6.608,0 -12.217,3.035 -12.217,17.666l0,17.46c0,15.198 5.538,17.666 12.217,17.666Z" style="fill:#fff;fill-rule:nonzero;"/><path d="M86.537,894.741c9.666,0 12.414,-2.229 12.414,-17.635l0,-17.43c0,-11.275 -2.676,-17.635 -12.414,-17.635c-9.738,0 -12.414,6.431 -12.414,17.635l0,17.43c0,15.406 2.748,17.635 12.414,17.635Zm-0,-6.514c-3.174,0 -4.251,0.327 -4.251,-11.122l0,-17.43c0,-9.873 1.401,-9.787 4.251,-9.787c2.85,-0 4.195,-0.057 4.195,9.787l0,17.43c0,11.449 -1.02,11.122 -4.195,11.122Z" style="fill:#fff;fill-rule:nonzero;"/><path d="M333.537,894.741c9.666,0 12.414,-2.229 12.414,-17.635l0,-17.43c0,-11.275 -2.676,-17.635 -12.414,-17.635c-9.738,0 -12.414,6.431 -12.414,17.635l0,17.43c0,15.406 2.748,17.635 12.414,17.635Zm-0,-6.514c-3.174,0 -4.251,0.327 -4.251,-11.122l0,-17.43c0,-9.873 1.401,-9.787 4.251,-9.787c2.85,-0 4.195,-0.057 4.195,9.787l0,17.43c0,11.449 -1.02,11.122 -4.195,11.122Z" style="fill:#fff;fill-rule:nonzero;"/><path d="M261.765,894.966c6.679,0 11.715,-0.855 11.715,-17.646c0,-0.69 -0.056,-1.237 -0.725,-1.237l-6.08,0c-0.614,0 -0.893,0.275 -0.948,1.031c-0.335,2.475 0.991,11.039 -3.961,11.039c-4.812,0 -4.184,-6.041 -4.184,-10.852l0,-17.46c0,-4.812 -0.541,-9.83 4.184,-9.83c4.724,0 3.626,7.4 3.961,9.874c0.056,0.756 0.335,1.031 0.948,1.031l6.08,0c0.669,0 0.725,-0.548 0.725,-1.237c0,-16.223 -5.107,-17.504 -11.715,-17.504c-6.608,0 -12.217,3.035 -12.217,17.666l0,17.46c0,15.198 5.538,17.666 12.217,17.666Z" style="fill:#fff;fill-rule:nonzero;"/><path d="M290.765,894.966c6.679,0 11.715,-0.855 11.715,-17.646c0,-0.69 -0.056,-1.237 -0.725,-1.237l-6.08,0c-0.614,0 -0.893,0.275 -0.948,1.031c-0.335,2.475 0.991,11.039 -3.961,11.039c-4.812,0 -4.184,-6.041 -4.184,-10.852l0,-17.46c0,-4.812 -0.541,-9.83 4.184,-9.83c4.724,0 3.626,7.4 3.961,9.874c0.056,0.756 0.335,1.031 0.948,1.031l6.08,0c0.669,0 0.725,-0.548 0.725,-1.237c0,-16.223 -5.107,-17.504 -11.715,-17.504c-6.608,0 -12.217,3.035 -12.217,17.666l0,17.46c0,15.198 5.538,17.666 12.217,17.666Z" style="fill:#fff;fill-rule:nonzero;"/><path d="M128.712,843.026l-5.418,-0c-0.863,0 -1.209,0.409 -1.209,1.43l0,27.318c0,0.477 -0.461,0.545 -0.633,0.068l-6.486,-27.386c-0.345,-1.021 -0.748,-1.43 -1.669,-1.43l-8.071,0c-0.863,0 -1.209,0.409 -1.209,1.43l0,48.211c0,1.021 0.345,1.43 1.209,1.43l4.645,-0c0.863,0 1.209,-0.409 1.209,-1.43l0,-33.101c0,-0.477 0.461,-0.545 0.633,-0.068l9.35,33.169c0.403,1.021 0.748,1.43 1.727,1.43l5.923,0c0.863,0 1.209,-0.409 1.209,-1.43l0,-48.211c0,-1.021 -0.345,-1.43 -1.209,-1.43Z" style="fill:#fff;fill-rule:nonzero;"/><path d="M375.712,843.026l-5.418,-0c-0.863,0 -1.209,0.409 -1.209,1.43l0,27.318c0,0.477 -0.461,0.545 -0.633,0.068l-6.486,-27.386c-0.345,-1.021 -0.748,-1.43 -1.669,-1.43l-8.071,0c-0.863,0 -1.209,0.409 -1.209,1.43l0,48.211c0,1.021 0.345,1.43 1.209,1.43l4.645,-0c0.863,0 1.209,-0.409 1.209,-1.43l0,-33.101c0,-0.477 0.461,-0.545 0.633,-0.068l9.35,33.169c0.403,1.021 0.748,1.43 1.727,1.43l5.923,0c0.863,0 1.209,-0.409 1.209,-1.43l0,-48.211c0,-1.021 -0.345,-1.43 -1.209,-1.43Z" style="fill:#fff;fill-rule:nonzero;"/><path d="M159.269,882.321c0,-14.157 -16.193,-15.997 -16.193,-29.018c0,-2.083 1.677,-3.296 3.251,-3.296c4.372,0 4.651,2.935 4.651,6.033c0.067,0.758 0.403,0.965 1.142,0.965l5.985,0c0.806,0 0.873,-0.551 0.873,-1.241c0,-11.517 -5.371,-13.696 -12.667,-13.696c-7.635,0 -11.37,5.018 -11.37,11.36c0,17.863 16.1,18.38 16.1,29.306c0,3.931 -0.566,5.313 -4.192,5.313c-4.029,0 -4.408,-3.539 -4.811,-7.123c-0.067,-0.689 -0.403,-0.896 -1.142,-0.896l-5.697,0c-0.806,0 -0.873,0.551 -0.873,1.241c0,11.791 5.471,13.734 12.455,13.734c6.312,0 12.49,-1.277 12.49,-12.682Z" style="fill:#fff;fill-rule:nonzero;"/><path d="M185.319,842.928l-22.722,0c-1.136,0 -1.591,0.409 -1.591,1.433l0,4.228c0,1.023 0.454,1.433 1.591,1.433l6.017,0c1.136,0 1.439,0.273 1.439,1.296l0,41.345c0,1.023 0.454,1.433 1.591,1.433l4.7,0c1.136,0 1.591,-0.409 1.591,-1.433l0,-41.391c0,-1.023 0.303,-1.296 1.439,-1.296l5.946,0c1.136,0 1.591,-0.409 1.591,-1.433l0,-4.183c0,-1.023 -0.454,-1.433 -1.591,-1.433Z" style="fill:#fff;fill-rule:nonzero;"/><path d="M214.977,892.701l-0.061,-18.647c-0,-3.045 -4.278,-6.205 -6.343,-6.205c3.394,0 6.184,-5.027 6.184,-7.103l0,-4.283c-0,-11.998 -5.681,-13.132 -12.528,-13.394l-10.562,0c-1.093,0 -1.53,0.408 -1.53,1.428l0,48.136c0,1.02 0.437,1.428 1.53,1.428l5.786,0c1.093,0 1.53,-0.408 1.53,-1.428l-0,-18.323c0,-1.02 0.291,-1.292 1.384,-1.292l3.606,0c1.676,0.675 2.632,2.07 3.066,3.987l-0.067,16.104c0.291,0.68 0.652,0.952 1.526,0.952l5.749,0c0.728,0 0.728,-0.631 0.728,-1.36Zm-15.984,-28.88l0,-12.611c0,-1.02 0.291,-1.292 1.384,-1.292l1.415,0c2.551,0 5.274,1.994 5.274,6.342l0,4.487c-0,3.278 -2.859,4.366 -5.274,4.366l-1.415,0c-1.093,0 -1.384,-0.272 -1.384,-1.292Z" style="fill:#fff;fill-rule:nonzero;"/><path d="M243.407,843.008l-4.93,-0c-1.04,0 -1.456,0.411 -1.456,1.438l0,36.232c0,5.548 -0.962,7.527 -4.497,7.527c-3.535,0 -4.398,-1.98 -4.398,-7.527l0,-36.232c0,-1.027 -0.416,-1.438 -1.456,-1.438l-5.03,0c-1.04,0 -1.456,0.411 -1.456,1.438l0,36.232c0,9.041 4.575,14.315 12.339,14.315c7.764,0 12.339,-5.274 12.339,-14.315l0,-36.232c0,-1.027 -0.416,-1.438 -1.456,-1.438Z" style="fill:#fff;fill-rule:nonzero;"/><path d="M307.013,892.615c0,1.02 0.527,1.428 1.844,1.428l4.303,0c1.317,0 1.844,-0.408 1.844,-1.428l0,-48.142c0,-1.02 -0.527,-1.428 -1.844,-1.428l-4.303,0c-1.317,0 -1.844,0.408 -1.844,1.428l0,48.142Z" style="fill:#fff;fill-rule:nonzero;"/><path d="M329.025,838.924l5.018,-7.906l7.951,0.03l-5.996,7.945l-6.972,-0.068Z" style="fill:#fff;"/></g><path d="M383.092,887.033l0,6.956l2.955,0.047l-3.001,9.841l4.002,0l3.955,-9.934l0,-6.91l-7.91,0Z" style="fill:#fff;"/></g></g></g><path d="M1497.765,894.966c6.679,0 11.715,-0.855 11.715,-17.646c0,-0.69 -0.056,-1.237 -0.725,-1.237l-6.08,0c-0.614,0 -0.893,0.275 -0.948,1.031c-0.335,2.475 0.991,11.039 -3.961,11.039c-4.812,0 -4.184,-6.041 -4.184,-10.852l0,-17.46c0,-4.812 -0.541,-9.83 4.184,-9.83c4.724,0 3.626,7.4 3.961,9.874c0.056,0.756 0.335,1.031 0.948,1.031l6.08,0c0.669,0 0.725,-0.548 0.725,-1.237c0,-16.223 -5.107,-17.504 -11.715,-17.504c-6.608,0 -12.217,3.035 -12.217,17.666l0,17.46c0,15.198 5.538,17.666 12.217,17.666Z" style="fill:#fff;fill-rule:nonzero;"/><path d="M1084.712,843.026l-5.418,-0c-0.863,0 -1.209,0.409 -1.209,1.43l0,27.318c0,0.477 -0.461,0.545 -0.633,0.068l-6.486,-27.386c-0.345,-1.021 -0.748,-1.43 -1.669,-1.43l-8.071,0c-0.863,0 -1.209,0.409 -1.209,1.43l0,48.211c0,1.021 0.345,1.43 1.209,1.43l4.645,-0c0.863,0 1.209,-0.409 1.209,-1.43l0,-33.101c0,-0.477 0.461,-0.545 0.633,-0.068l9.35,33.169c0.403,1.021 0.748,1.43 1.727,1.43l5.923,0c0.863,0 1.209,-0.409 1.209,-1.43l0,-48.211c0,-1.021 -0.345,-1.43 -1.209,-1.43Z" style="fill:#fff;fill-rule:nonzero;"/><path d="M1175.192,882.25c0,-14.157 -16.193,-15.997 -16.193,-29.018c0,-2.083 1.677,-3.296 3.251,-3.296c4.372,0 4.651,2.935 4.651,6.033c0.067,0.758 0.403,0.965 1.142,0.965l5.985,0c0.806,0 0.873,-0.551 0.873,-1.241c0,-11.517 -5.371,-13.696 -12.667,-13.696c-7.635,0 -11.37,5.018 -11.37,11.36c0,17.863 16.1,18.38 16.1,29.306c0,3.931 -0.566,5.313 -4.192,5.313c-4.029,0 -4.408,-3.539 -4.811,-7.123c-0.067,-0.689 -0.403,-0.896 -1.142,-0.896l-5.697,0c-0.806,0 -0.873,0.551 -0.873,1.241c0,11.791 5.471,13.734 12.455,13.734c6.312,0 12.49,-1.277 12.49,-12.682Z" style="fill:#fff;fill-rule:nonzero;"/><path d="M1342.01,882.214c0,-14.157 -16.193,-15.997 -16.193,-29.018c0,-2.083 1.677,-3.296 3.251,-3.296c4.372,0 4.651,2.935 4.651,6.033c0.067,0.758 0.403,0.965 1.142,0.965l5.985,0c0.806,0 0.873,-0.551 0.873,-1.241c0,-11.517 -5.371,-13.696 -12.667,-13.696c-7.635,0 -11.37,5.018 -11.37,11.36c0,17.863 16.1,18.38 16.1,29.306c0,3.931 -0.566,5.313 -4.192,5.313c-4.029,0 -4.408,-3.539 -4.811,-7.123c-0.067,-0.689 -0.403,-0.896 -1.142,-0.896l-5.697,0c-0.806,0 -0.873,0.551 -0.873,1.241c0,11.791 5.471,13.734 12.455,13.734c6.312,0 12.49,-1.277 12.49,-12.682Z" style="fill:#fff;fill-rule:nonzero;"/><path d="M1201.319,842.928l-22.722,0c-1.136,0 -1.591,0.409 -1.591,1.433l0,4.228c0,1.023 0.454,1.433 1.591,1.433l6.017,0c1.136,0 1.439,0.273 1.439,1.296l0,41.345c0,1.023 0.454,1.433 1.591,1.433l4.7,0c1.136,0 1.591,-0.409 1.591,-1.433l0,-41.391c0,-1.023 0.303,-1.296 1.439,-1.296l5.946,0c1.136,0 1.591,-0.409 1.591,-1.433l0,-4.183c0,-1.023 -0.454,-1.433 -1.591,-1.433Z" style="fill:#fff;fill-rule:nonzero;"/><path d="M1231.977,892.701l-0.061,-18.647c-0,-3.045 -4.278,-6.205 -6.343,-6.205c3.394,0 6.184,-5.027 6.184,-7.103l0,-4.283c-0,-11.998 -5.681,-13.132 -12.528,-13.394l-10.562,0c-1.093,0 -1.53,0.408 -1.53,1.428l0,48.136c0,1.02 0.437,1.428 1.53,1.428l5.786,0c1.093,0 1.53,-0.408 1.53,-1.428l-0,-18.323c0,-1.02 0.291,-1.292 1.384,-1.292l3.606,0c1.676,0.675 2.632,2.07 3.066,3.987l-0.067,16.104c0.291,0.68 0.652,0.952 1.526,0.952l5.749,0c0.728,0 0.728,-0.631 0.728,-1.36Zm-15.984,-28.88l0,-12.611c0,-1.02 0.291,-1.292 1.384,-1.292l1.415,0c2.551,0 5.274,1.994 5.274,6.342l0,4.487c-0,3.278 -2.859,4.366 -5.274,4.366l-1.415,0c-1.093,0 -1.384,-0.272 -1.384,-1.292Z" style="fill:#fff;fill-rule:nonzero;"/><path d="M1145.407,843.008l-4.93,-0c-1.04,0 -1.456,0.411 -1.456,1.438l0,36.232c0,5.548 -0.962,7.527 -4.497,7.527c-3.535,0 -4.398,-1.98 -4.398,-7.527l0,-36.232c0,-1.027 -0.416,-1.438 -1.456,-1.438l-5.03,0c-1.04,0 -1.456,0.411 -1.456,1.438l0,36.232c0,9.041 4.575,14.315 12.339,14.315c7.764,0 12.339,-5.274 12.339,-14.315l0,-36.232c0,-1.027 -0.416,-1.438 -1.456,-1.438Z" style="fill:#fff;fill-rule:nonzero;"/><path d="M1046.442,892.582c0,1.02 0.527,1.428 1.844,1.428l4.303,0c1.317,0 1.844,-0.408 1.844,-1.428l0,-48.142c0,-1.02 -0.527,-1.428 -1.844,-1.428l-4.303,0c-1.317,0 -1.844,0.408 -1.844,1.428l0,48.142Z" style="fill:#fff;fill-rule:nonzero;"/><path d="M1236.442,892.582c0,1.02 0.527,1.428 1.844,1.428l4.303,0c1.317,0 1.844,-0.408 1.844,-1.428l0,-48.142c0,-1.02 -0.527,-1.428 -1.844,-1.428l-4.303,0c-1.317,0 -1.844,0.408 -1.844,1.428l0,48.142Z" style="fill:#fff;fill-rule:nonzero;"/><path d="M1300.5,887.08l-10.061,-0c-1.134,0 -1.436,-0.273 -1.436,-1.295l0,-41.345c0,-1.022 -0.454,-1.431 -1.588,-1.431l-4.814,0c-1.134,0 -1.588,0.409 -1.588,1.431l0,48.252c0,1.022 0.454,1.431 1.588,1.431l17.899,0c1.134,0 1.588,-0.409 1.588,-1.431l0,-4.18c0,-1.022 -0.454,-1.431 -1.588,-1.431Z" style="fill:#fff;fill-rule:nonzero;"/><path d="M1248.889,892.826c-0.209,1.02 0.279,1.36 1.046,1.36l5.371,0c0.907,0 1.325,-0.34 1.534,-1.36l1.08,-7.767c0.209,-0.816 0.488,-0.952 1.395,-0.952l6.678,0c0.907,0 1.185,0.136 1.395,0.952l1.298,7.767c0.209,1.02 0.628,1.36 1.534,1.36l5.516,0c0.767,0 1.255,-0.34 1.046,-1.36l-7.904,-48.278c-0.279,-1.156 -0.767,-1.36 -1.883,-1.36l-7.739,0c-1.116,0 -1.604,0.204 -1.883,1.36l-8.485,48.278Zm9.884,-16.251l3.645,-22.344c0.07,-0.476 0.697,-0.476 0.837,0l3.572,22.344c0.07,0.544 -0.209,0.748 -0.558,0.748l-6.938,0c-0.349,0 -0.628,-0.204 -0.558,-0.748Z" style="fill:#fff;fill-rule:nonzero;"/><path d="M1358.662,892.826c-0.209,1.02 0.279,1.36 1.046,1.36l5.371,0c0.907,0 1.325,-0.34 1.534,-1.36l1.08,-7.767c0.209,-0.816 0.488,-0.952 1.395,-0.952l6.678,0c0.907,0 1.185,0.136 1.395,0.952l1.298,7.767c0.209,1.02 0.628,1.36 1.534,1.36l5.516,0c0.767,0 1.255,-0.34 1.046,-1.36l-7.904,-48.278c-0.279,-1.156 -0.767,-1.36 -1.883,-1.36l-7.739,0c-1.116,0 -1.604,0.204 -1.883,1.36l-8.485,48.278Zm9.884,-16.251l3.645,-22.344c0.07,-0.476 0.697,-0.476 0.837,0l3.572,22.344c0.07,0.544 -0.209,0.748 -0.558,0.748l-6.938,0c-0.349,0 -0.628,-0.204 -0.558,-0.748Z" style="fill:#fff;fill-rule:nonzero;"/><path d="M1455.016,851.242c0,-1.018 0.35,-1.289 1.662,-1.289l10.513,0c1.312,0 1.837,-0.407 1.837,-1.425l0,-3.998c0,-1.018 -0.525,-1.425 -1.837,-1.425l-18.3,0c-1.312,0 -1.837,0.407 -1.837,1.425l0,48.05c0,1.018 0.525,1.425 1.837,1.425l18.3,0c1.312,0 1.837,-0.407 1.837,-1.425l0,-3.137c0,-1.018 -0.525,-1.425 -1.837,-1.425l-10.513,0c-1.312,0 -1.662,-0.271 -1.662,-1.289l0,-14.425c0,-1.018 0.35,-1.289 1.662,-1.289l7.503,0c1.312,0 1.837,-0.407 1.837,-1.425l0,-3.137c0,-1.018 -0.525,-1.425 -1.837,-1.425l-7.503,0c-1.312,0 -1.662,-0.271 -1.662,-1.289l0,-12.494Z" style="fill:#fff;fill-rule:nonzero;"/><path d="M1102.951,843.027l-9.566,0c-1.003,0 -1.405,0.409 -1.405,1.43l0,48.221c0,1.022 0.401,1.43 1.405,1.43l9.566,0c8.697,0 13.045,-5.176 13.045,-14.711l0,-21.658c0,-9.535 -4.348,-14.711 -13.045,-14.711Zm5.161,36.71c0,5.925 0.385,7.276 -3.431,7.276l-3.412,0c-1.003,0 -1.271,-0.272 -1.271,-1.294l0,-34.442c0,-1.022 0.268,-1.294 1.271,-1.294l3.412,0c3.682,-0 3.431,1.489 3.431,7.415l0,22.339Z" style="fill:#fff;fill-rule:nonzero;"/><path d="M1427.951,843.027l-9.566,0c-1.003,0 -1.405,0.409 -1.405,1.43l0,48.221c0,1.022 0.401,1.43 1.405,1.43l9.566,0c8.697,0 13.045,-5.176 13.045,-14.711l0,-21.658c0,-9.535 -4.348,-14.711 -13.045,-14.711Zm5.161,36.71c0,5.925 0.385,7.276 -3.431,7.276l-3.412,0c-1.003,0 -1.271,-0.272 -1.271,-1.294l0,-34.442c0,-1.022 0.268,-1.294 1.271,-1.294l3.412,0c3.682,-0 3.431,1.489 3.431,7.415l0,22.339Z" style="fill:#fff;fill-rule:nonzero;"/><path d="M1541.147,844.343l-4.134,35.607c-0.088,0.477 -0.878,0.477 -1.054,0l-4.974,-35.607c-0.263,-1.022 -0.966,-1.363 -2.108,-1.363l-4.545,0c-0.966,0 -1.493,0.341 -1.229,1.363l7.041,48.388c0.351,1.159 0.878,1.363 2.283,1.363l7.001,0c1.405,0 1.932,-0.204 2.283,-1.363l7.136,-48.388c0.351,-1.022 -0.263,-1.363 -1.229,-1.363l-4.364,0c-1.142,0 -1.844,0.341 -2.108,1.363Z" style="fill:#fff;fill-rule:nonzero;"/><path d="M1346.119,893.976l0,-6.887l7.903,-0.069l0,6.961l-7.903,-0.005Z" style="fill:#fff;"/><path d="M1391.119,893.976l0,-6.887l7.903,-0.069l0,6.961l-7.903,-0.005Z" style="fill:#fff;"/><path d="M1514.119,893.976l0,-6.887l7.903,-0.069l0,6.961l-7.903,-0.005Z" style="fill:#fff;"/><path d="M1549.119,893.976l0,-6.887l7.903,-0.069l0,6.961l-7.903,-0.005Z" style="fill:#fff;"/></g><g><path d="M833.353,442.076l49.65,-0l285.997,375.923l-136.983,-0.002l-243.929,-324.601l45.265,-51.32Zm9.028,20l-28.516,32.331l228.141,303.59l86.649,0.001l-255.566,-335.922l-30.708,0Z" style="fill:#fff;"/><path d="M34.022,817.993l273.042,-375.916l575.939,-0.001l-282.027,375.921l-566.955,-0.005Zm420.865,-309.258l-62.71,0c-2.177,0 -3.048,0.866 -3.048,3.03l-0,15.526c0,2.165 0.871,3.03 3.048,3.03l14.698,0c2.177,0 2.758,0.577 2.758,2.742l0,80.869c0,2.165 0.871,3.03 3.048,3.03l20.09,-0c2.177,0 3.048,-0.866 3.048,-3.03l0,-80.98c0,-2.165 0.581,-2.742 2.758,-2.742l16.311,0c2.177,0 3.048,-0.866 3.048,-3.03l0,-15.415c0,-2.165 -0.871,-3.03 -3.048,-3.03Zm-85.116,140.518l-7.935,61.062c-0.176,1.014 -0.482,1.014 -0.659,0l-8.417,-61.062c-0.529,-2.172 -1.941,-2.896 -4.235,-2.896l-21.14,0c-1.941,0 -3.176,0.724 -2.47,2.896l20.826,102.8c0.706,2.461 0.028,2.896 2.851,2.896l24.151,0c2.823,0 2.332,-0.434 3.038,-2.896l21.141,-102.8c0.706,-2.172 -0.529,-2.896 -2.47,-2.896l-20.445,0c-2.294,0 -3.529,0.724 -4.235,2.896Zm287.858,-54.561l-27.313,0c-2.666,0 -3.377,-0.581 -3.377,-2.758l0,-80.134c0,-2.177 -1.066,-3.048 -3.732,-3.048l-18.128,0c-2.666,0 -3.732,0.871 -3.732,3.048l0,102.771c0,2.177 1.066,3.048 3.732,3.048l52.549,0c2.666,0 3.732,-0.871 3.732,-3.048l-0,-16.831c0,-2.177 -1.066,-3.048 -3.732,-3.048Zm-166.049,-61.344c0,-2.171 0.547,-2.75 2.599,-2.75l28.391,0c2.052,0 2.872,-0.868 2.872,-3.039l0,-15.751c0,-2.171 -0.821,-3.039 -2.872,-3.039l-53.204,0c-2.052,0 -2.872,0.868 -2.872,3.039l0,102.471c0,2.171 0.821,3.039 2.872,3.039l53.03,-0c2.052,0 2.872,-0.868 2.872,-3.039l0,-16.968c0,-2.171 -0.821,-3.039 -2.872,-3.039l-27.869,0c-2.052,0 -2.599,-0.579 -2.599,-2.75l0,-14.899c0,-2.171 0.547,-2.75 2.599,-2.75l13.958,0c2.052,0 2.872,-0.868 2.872,-3.039l0,-16.446c0,-2.171 -0.821,-3.039 -2.872,-3.039l-14.306,0c-2.052,0 -2.599,-0.579 -2.599,-2.75l0,-15.249Zm117.175,193.754c2.476,-27.54 -36.378,-36.476 -38.731,-52.865c-0.472,-3.291 2.944,-6.238 6.268,-6.238c4.956,0 5.111,6.2 6.002,11.075c0.149,1.577 0.891,2.151 2.525,2.151l21.112,0c1.782,0 1.931,-1.139 1.931,-2.581c0,-15.976 -5.989,-33.265 -32.163,-33.265c-19.305,0 -32.074,11.222 -32.074,29.339c0,30.886 39.949,40.911 38.356,53.676c-0.505,4.045 -2.769,4.799 -5.094,4.799c-6.218,0 -6.149,-5.709 -6.743,-11.157c-0.149,-1.577 -1.04,-2.151 -2.673,-2.151l-21.157,0c-1.782,0 -1.837,1.15 -1.931,2.581c-1.293,19.794 11.168,32.74 32.354,33.916c11.555,0.642 30.076,-7.695 32.017,-29.279Zm-323.756,29.128c22.785,0.098 33.91,-14.291 33.378,-37.349l0,-36.913c0.176,-22.526 -10.628,-37.084 -33.378,-37.349c-22.977,-0.268 -33.857,14.345 -33.378,37.349l0,36.913c-0.716,22.765 10.265,37.25 33.378,37.349Zm0,-23.085c-6.309,0 -6.979,-4.092 -6.979,-14.265l0,-36.913c0,-10.173 1.227,-14.682 6.979,-14.682c5.753,0 7.244,4.509 7.244,14.682l0,36.913c0,10.173 -0.935,14.265 -7.244,14.265Zm99.351,-143.483c2.476,-27.54 -36.378,-36.476 -38.731,-52.865c-0.472,-3.291 2.944,-6.238 6.268,-6.238c4.956,0 5.111,6.2 6.002,11.075c0.149,1.577 0.891,2.151 2.525,2.151l21.112,0c1.782,0 1.931,-1.139 1.931,-2.581c0,-15.976 -5.989,-33.265 -32.163,-33.265c-19.305,0 -32.074,11.222 -32.074,29.339c0,30.886 39.949,40.911 38.356,53.676c-0.505,4.045 -2.769,4.799 -5.094,4.799c-6.218,0 -6.149,-5.709 -6.743,-11.157c-0.149,-1.577 -1.04,-2.151 -2.673,-2.151l-21.157,0c-1.782,0 -1.837,1.15 -1.931,2.581c-1.293,19.794 11.168,32.74 32.354,33.916c11.555,0.642 30.076,-7.695 32.017,-29.279Zm45.74,81.25c0,-2.171 0.547,-2.75 2.599,-2.75l28.391,0c2.052,0 2.872,-0.868 2.872,-3.039l0,-15.751c0,-2.171 -0.821,-3.039 -2.872,-3.039l-53.204,0c-2.052,0 -2.872,0.868 -2.872,3.039l0,102.471c0,2.171 0.821,3.039 2.872,3.039l53.03,-0c2.052,0 2.872,-0.868 2.872,-3.039l0,-16.968c0,-2.171 -0.821,-3.039 -2.872,-3.039l-27.869,0c-2.052,0 -2.599,-0.579 -2.599,-2.75l0,-14.899c0,-2.171 0.547,-2.75 2.599,-2.75l13.958,0c2.052,0 2.872,-0.868 2.872,-3.039l0,-16.446c0,-2.171 -0.821,-3.039 -2.872,-3.039l-14.306,0c-2.052,0 -2.599,-0.579 -2.599,-2.75l0,-15.249Zm108.13,81.138l-12.403,-44.32c7.722,-5.645 12.279,-10.968 12.279,-22.981l0,-5.5c0,-19.828 -13.068,-32.855 -30.443,-32.855l-32.101,0c-2.228,0 -3.119,0.868 -3.119,3.039l0,102.471c0,2.171 0.891,3.039 3.119,3.039l19.487,-0c2.228,0 3.119,-0.868 3.119,-3.039l-0.138,-36.609c0,-2.171 0.131,-2.287 2.359,-2.287l1.518,0l9.941,39.909c0.594,1.447 1.634,2.026 3.564,2.026l21.333,0c1.634,0 2.228,-1.158 1.485,-2.895Zm-39.65,-63.06l0,-16.757c0,-2.171 0.594,-2.75 2.822,-2.75c4.745,0 9.005,-0.076 10.545,9.621l0,4.776c-2.841,8.525 -6.273,7.264 -10.545,7.859c-2.228,0 -2.822,-0.579 -2.822,-2.75Zm-285.877,67.229c22.895,0.287 32.954,-17.042 31.765,-33.874c-0.103,-1.459 -0.151,-2.619 -1.966,-2.619l-21.05,0c-1.664,0 -2.42,0.582 -2.571,2.182c-0.908,5.238 0.781,11.066 -6.177,11.066c-8.471,0 -6.893,-3.961 -6.893,-14.146l0.111,-36.954c0,-10.184 -1.689,-13.923 6.782,-13.923c6.958,0 5.102,5.439 6.01,10.676c0.151,1.6 0.908,2.182 2.571,2.182l21.217,0c1.815,0 1.891,-1.158 1.966,-2.619c0.862,-16.78 -9.669,-34.034 -31.765,-33.707c-23.642,0.349 -34.235,14.47 -33.126,37.391l0,36.954c-1.154,23.32 9.541,37.095 33.126,37.391Zm346.509,-222.877c0,-2.171 0.547,-2.75 2.599,-2.75l28.391,0c2.052,0 2.872,-0.868 2.872,-3.039l0,-15.751c0,-2.171 -0.821,-3.039 -2.872,-3.039l-53.204,0c-2.052,0 -2.872,0.868 -2.872,3.039l0,102.471c0,2.171 0.821,3.039 2.872,3.039l53.03,-0c2.052,0 2.872,-0.868 2.872,-3.039l0,-16.968c0,-2.171 -0.821,-3.039 -2.872,-3.039l-27.869,0c-2.052,0 -2.599,-0.579 -2.599,-2.75l0,-14.899c0,-2.171 0.547,-2.75 2.599,-2.75l13.958,0c2.052,0 2.872,-0.868 2.872,-3.039l0,-16.446c0,-2.171 -0.821,-3.039 -2.872,-3.039l-14.306,0c-2.052,0 -2.599,-0.579 -2.599,-2.75l0,-15.249Z" style="fill:#fff;"/></g><g><path d="M1102.357,271.063l49.65,0l412.985,546.915l-137.984,-0l-380.066,-497.297l55.415,-49.618Zm7.645,20l-35.934,32.175l362.826,474.74l87.933,-0l-382.78,-506.915l-32.046,-0Z" style="fill:#fff;"/><path d="M412.06,363.961l72.927,-92.9l667.021,0.002l-71.98,92.909l-667.968,-0.011Z" style="fill:#fff;"/></g><g><path d="M545.201,244.956c35.776,1.108 53.321,-26.68 52.377,-54.313c-0.082,-2.391 -0.249,-4.286 -3.242,-4.286l-34.558,0c-2.744,0 -3.991,0.952 -4.24,3.571c-1.496,8.571 -0.715,18.91 -10.336,18.91c-12.614,0 -13.055,-11.104 -13.055,-25.071l0,-60.474c0,-13.967 -0.912,-24.537 13.055,-24.537c9.514,0 9.399,9.113 10.892,17.665c0.452,2.592 1.496,3.571 4.24,3.571l34.002,0c2.993,0 3.135,-1.895 3.242,-4.286c1.251,-27.939 -16.354,-53.47 -52.377,-53.602c-39.56,-0.145 -56.698,22.654 -54.621,61.188l0,60.474c-2.211,36.903 16.398,60.005 54.621,61.188Z" style="fill:#fff;fill-rule:nonzero;"/><path d="M705.763,207.157l-45.324,0c-4.359,0 -5.522,-0.949 -5.522,-4.508l0,-133.646c0,-3.559 -1.744,-4.983 -6.103,-4.983l-29.644,0c-4.359,0 -6.103,1.424 -6.103,4.983l0,167.995c0,3.559 1.744,4.983 6.103,4.983l86.594,0c4.359,0 6.103,-1.424 6.103,-4.983l0,-24.857c0,-3.559 -1.744,-4.983 -6.103,-4.983Z" style="fill:#fff;fill-rule:nonzero;"/><path d="M722.135,237.308c-0.948,3.56 0.948,4.746 3.555,4.746l32.898,0c3.081,0 4.74,-0.949 5.688,-4.746l1.387,-17.114c0.711,-2.848 1.659,-3.322 4.74,-3.322l24.024,0c3.081,0 4.029,0.475 4.74,3.322l1.743,17.114c0.948,3.797 2.607,4.746 5.688,4.746l32.631,0c2.607,0 4.503,-1.187 3.555,-4.746l-35.304,-168.488c-1.202,-5.116 -0.674,-4.746 -6.399,-4.746l-36.3,0c-4.558,0 -5.177,-0.455 -6.399,4.746l-36.249,168.488Zm50.088,-55.862l8.222,-55.865c0.237,-1.661 2.37,-1.661 2.844,0l9.005,55.865c0.237,1.661 -0.711,2.61 -1.896,2.61l-16.279,0c-1.422,0 -2.37,-0.949 -1.896,-2.61Z" style="fill:#fff;fill-rule:nonzero;"/><path d="M856.974,237.087c0,3.559 1.744,4.983 6.104,4.983l29.648,0c4.36,0 6.104,-1.424 6.104,-4.983l0,-168c0,-3.559 -1.744,-4.983 -6.104,-4.983l-29.648,0c-4.36,0 -6.104,1.424 -6.104,4.983l0,168Z" style="fill:#fff;fill-rule:nonzero;"/><path d="M1020.213,196.889c4.072,-45.289 -60.041,-56.666 -64.387,-86.937c-0.777,-5.412 5.534,-11.229 11.002,-11.229c10.229,0 8.617,12.325 9.87,19.183c0.468,2.563 1.465,3.537 4.152,3.537l34.719,0c2.931,0 3.175,-1.874 3.175,-4.244c0,-26.272 -9.849,-55.06 -52.892,-55.06c-31.747,0 -52.746,18.809 -52.746,48.603c0,50.792 66.343,65.083 64.29,88.27c-0.591,6.677 -5.767,7.892 -9.59,7.892c-10.226,0 -10.112,-8.175 -11.089,-17.135c-0.244,-2.594 -1.709,-3.537 -4.396,-3.537l-34.792,0c-2.931,0 -3.021,1.891 -3.175,4.244c-2.275,34.82 18.367,52.627 53.207,54.562c19.003,1.055 49.461,-12.655 52.652,-48.149Z" style="fill:#fff;fill-rule:nonzero;"/><path d="M1029.135,237.308c-0.948,3.56 0.948,4.746 3.555,4.746l32.898,0c3.081,0 4.74,-0.949 5.688,-4.746l1.387,-17.114c0.711,-2.848 1.659,-3.322 4.74,-3.322l24.024,0c3.081,0 4.029,0.475 4.74,3.322l1.743,17.114c0.948,3.797 2.607,4.746 5.688,4.746l32.631,0c2.607,0 4.503,-1.187 3.555,-4.746l-35.304,-168.488c-1.202,-5.116 -0.674,-4.746 -6.399,-4.746l-36.3,0c-4.558,0 -5.177,-0.455 -6.399,4.746l-36.249,168.488Zm50.088,-55.862l8.222,-55.865c0.237,-1.661 2.37,-1.661 2.844,0l9.005,55.865c0.237,1.661 -0.711,2.61 -1.896,2.61l-16.279,0c-1.422,0 -2.37,-0.949 -1.896,-2.61Z" style="fill:#fff;fill-rule:nonzero;"/></g></svg>